<svg width="85" height="35" viewBox="0 0 85 35" fill="none" xmlns="http://www.w3.org/2000/svg">
<path d="M19.168 8.272L8.192 34.384H3.424L7.264 25.552L0.16 8.272H5.184L9.76 20.656L14.4 8.272H19.168ZM23.855 6.16C23.0657 6.16 22.4043 5.91467 21.871 5.424C21.359 4.912 21.103 4.28267 21.103 3.536C21.103 2.78933 21.359 2.17067 21.871 1.68C22.4043 1.168 23.0657 0.911999 23.855 0.911999C24.6443 0.911999 25.295 1.168 25.807 1.68C26.3403 2.17067 26.607 2.78933 26.607 3.536C26.607 4.28267 26.3403 4.912 25.807 5.424C25.295 5.91467 24.6443 6.16 23.855 6.16ZM26.063 8.272V26H21.583V8.272H26.063ZM32.7613 6.16C31.9719 6.16 31.3106 5.91467 30.7773 5.424C30.2653 4.912 30.0093 4.28267 30.0093 3.536C30.0093 2.78933 30.2653 2.17067 30.7773 1.68C31.3106 1.168 31.9719 0.911999 32.7613 0.911999C33.5506 0.911999 34.2013 1.168 34.7133 1.68C35.2466 2.17067 35.5133 2.78933 35.5133 3.536C35.5133 4.28267 35.2466 4.912 34.7133 5.424C34.2013 5.91467 33.5506 6.16 32.7613 6.16ZM34.9693 8.272V26H30.4893V8.272H34.9693ZM41.3795 26.224C40.5688 26.224 39.8968 25.9787 39.3635 25.488C38.8515 24.976 38.5955 24.3467 38.5955 23.6C38.5955 22.8533 38.8515 22.2347 39.3635 21.744C39.8968 21.232 40.5688 20.976 41.3795 20.976C42.1688 20.976 42.8195 21.232 43.3315 21.744C43.8435 22.2347 44.0995 22.8533 44.0995 23.6C44.0995 24.3467 43.8435 24.976 43.3315 25.488C42.8195 25.9787 42.1688 26.224 41.3795 26.224ZM46.556 17.136C46.556 15.3013 46.9293 13.7013 47.676 12.336C48.4227 10.9493 49.4573 9.88267 50.78 9.136C52.1027 8.368 53.6173 7.984 55.324 7.984C57.5213 7.984 59.3347 8.53867 60.764 9.648C62.2147 10.736 63.1853 12.272 63.676 14.256H58.844C58.588 13.488 58.1507 12.8907 57.532 12.464C56.9347 12.016 56.188 11.792 55.292 11.792C54.012 11.792 52.9987 12.2613 52.252 13.2C51.5053 14.1173 51.132 15.4293 51.132 17.136C51.132 18.8213 51.5053 20.1333 52.252 21.072C52.9987 21.9893 54.012 22.448 55.292 22.448C57.1053 22.448 58.2893 21.6373 58.844 20.016H63.676C63.1853 21.936 62.2147 23.4613 60.764 24.592C59.3133 25.7227 57.5 26.288 55.324 26.288C53.6173 26.288 52.1027 25.9147 50.78 25.168C49.4573 24.4 48.4227 23.3333 47.676 21.968C46.9293 20.5813 46.556 18.9707 46.556 17.136ZM74.83 26.288C73.1233 26.288 71.5873 25.9147 70.222 25.168C68.8567 24.4 67.7793 23.3227 66.99 21.936C66.222 20.5493 65.838 18.9493 65.838 17.136C65.838 15.3227 66.2327 13.7227 67.022 12.336C67.8327 10.9493 68.9313 9.88267 70.318 9.136C71.7047 8.368 73.2513 7.984 74.958 7.984C76.6647 7.984 78.2113 8.368 79.598 9.136C80.9847 9.88267 82.0727 10.9493 82.862 12.336C83.6727 13.7227 84.078 15.3227 84.078 17.136C84.078 18.9493 83.662 20.5493 82.83 21.936C82.0193 23.3227 80.91 24.4 79.502 25.168C78.1153 25.9147 76.558 26.288 74.83 26.288ZM74.83 22.384C75.6407 22.384 76.398 22.192 77.102 21.808C77.8273 21.4027 78.4033 20.8053 78.83 20.016C79.2567 19.2267 79.47 18.2667 79.47 17.136C79.47 15.4507 79.022 14.16 78.126 13.264C77.2513 12.3467 76.174 11.888 74.894 11.888C73.614 11.888 72.5367 12.3467 71.662 13.264C70.8087 14.16 70.382 15.4507 70.382 17.136C70.382 18.8213 70.798 20.1227 71.63 21.04C72.4833 21.936 73.55 22.384 74.83 22.384Z" fill="#525252"/>
</svg>
